<mxfile host="65bd71144e">
    <diagram id="EskBjLlvsOVpmENRr14E" name="Page-1">
        <mxGraphModel dx="1723" dy="546" grid="1" gridSize="10" guides="1" tooltips="1" connect="1" arrows="1" fold="1" page="1" pageScale="1" pageWidth="827" pageHeight="1169" math="0" shadow="0">
            <root>
                <mxCell id="0"/>
                <mxCell id="1" parent="0"/>
                <mxCell id="56" value="User" style="swimlane;fillColor=none;strokeColor=#000000;" vertex="1" parent="1">
                    <mxGeometry x="-475" y="260" width="201" height="180" as="geometry">
                        <mxRectangle x="-770" y="50" width="70" height="30" as="alternateBounds"/>
                    </mxGeometry>
                </mxCell>
                <mxCell id="58" value="name: string" style="text;html=1;align=center;verticalAlign=middle;resizable=0;points=[];autosize=1;strokeColor=none;fillColor=none;" vertex="1" parent="56">
                    <mxGeometry x="3" y="25" width="90" height="30" as="geometry"/>
                </mxCell>
                <mxCell id="59" value="email: string" style="text;html=1;align=center;verticalAlign=middle;resizable=0;points=[];autosize=1;strokeColor=none;fillColor=none;" vertex="1" parent="56">
                    <mxGeometry x="1" y="40" width="90" height="30" as="geometry"/>
                </mxCell>
                <mxCell id="61" value="password: string" style="text;html=1;align=center;verticalAlign=middle;resizable=0;points=[];autosize=1;strokeColor=none;fillColor=none;" vertex="1" parent="56">
                    <mxGeometry x="2" y="56" width="110" height="30" as="geometry"/>
                </mxCell>
                <mxCell id="62" value="role: User,Admin,Staff" style="text;html=1;align=center;verticalAlign=middle;resizable=0;points=[];autosize=1;strokeColor=none;fillColor=none;" vertex="1" parent="56">
                    <mxGeometry x="0.5" y="72" width="140" height="30" as="geometry"/>
                </mxCell>
                <mxCell id="63" value="department: string" style="text;html=1;align=center;verticalAlign=middle;resizable=0;points=[];autosize=1;strokeColor=none;fillColor=none;" vertex="1" parent="56">
                    <mxGeometry y="87" width="120" height="30" as="geometry"/>
                </mxCell>
                <mxCell id="64" value="position: string" style="text;html=1;align=center;verticalAlign=middle;resizable=0;points=[];autosize=1;strokeColor=none;fillColor=none;" vertex="1" parent="56">
                    <mxGeometry y="102" width="100" height="30" as="geometry"/>
                </mxCell>
                <mxCell id="65" value="refreshToken: string" style="text;html=1;align=center;verticalAlign=middle;resizable=0;points=[];autosize=1;strokeColor=none;fillColor=none;" vertex="1" parent="56">
                    <mxGeometry x="-1" y="117" width="130" height="30" as="geometry"/>
                </mxCell>
                <mxCell id="66" value="forgotPasswordToken: string" style="text;html=1;align=center;verticalAlign=middle;resizable=0;points=[];autosize=1;strokeColor=none;fillColor=none;" vertex="1" parent="56">
                    <mxGeometry x="1" y="132" width="170" height="30" as="geometry"/>
                </mxCell>
                <mxCell id="67" value="forgotPasswordTokenExpiry: Date" style="text;html=1;align=center;verticalAlign=middle;resizable=0;points=[];autosize=1;strokeColor=none;fillColor=none;" vertex="1" parent="56">
                    <mxGeometry y="147" width="200" height="30" as="geometry"/>
                </mxCell>
                <mxCell id="68" value="Service" style="swimlane;fillColor=none;strokeColor=#000000;" vertex="1" parent="1">
                    <mxGeometry x="-474" y="100" width="156" height="100" as="geometry">
                        <mxRectangle x="-770" y="50" width="70" height="30" as="alternateBounds"/>
                    </mxGeometry>
                </mxCell>
                <mxCell id="69" value="name: string" style="text;html=1;align=center;verticalAlign=middle;resizable=0;points=[];autosize=1;strokeColor=none;fillColor=none;" vertex="1" parent="68">
                    <mxGeometry x="3" y="25" width="90" height="30" as="geometry"/>
                </mxCell>
                <mxCell id="70" value="description: string" style="text;html=1;align=center;verticalAlign=middle;resizable=0;points=[];autosize=1;strokeColor=none;fillColor=none;" vertex="1" parent="68">
                    <mxGeometry x="3" y="41" width="120" height="30" as="geometry"/>
                </mxCell>
                <mxCell id="71" value="price: number" style="text;html=1;align=center;verticalAlign=middle;resizable=0;points=[];autosize=1;fillColor=none;" vertex="1" parent="68">
                    <mxGeometry x="3" y="56" width="100" height="30" as="geometry"/>
                </mxCell>
                <mxCell id="111" style="edgeStyle=none;html=1;entryX=0.401;entryY=1.072;entryDx=0;entryDy=0;entryPerimeter=0;" edge="1" parent="1" source="78" target="67">
                    <mxGeometry relative="1" as="geometry"/>
                </mxCell>
                <mxCell id="78" value="Availability" style="swimlane;fillColor=none;strokeColor=#000000;" vertex="1" parent="1">
                    <mxGeometry x="-474" y="492" width="160" height="150" as="geometry">
                        <mxRectangle x="-770" y="50" width="70" height="30" as="alternateBounds"/>
                    </mxGeometry>
                </mxCell>
                <mxCell id="79" value="staffId: User._id" style="text;html=1;align=center;verticalAlign=middle;resizable=0;points=[];autosize=1;strokeColor=none;fillColor=none;" vertex="1" parent="78">
                    <mxGeometry y="25" width="110" height="30" as="geometry"/>
                </mxCell>
                <mxCell id="80" value="date: Date" style="text;html=1;align=center;verticalAlign=middle;resizable=0;points=[];autosize=1;strokeColor=none;fillColor=none;" vertex="1" parent="78">
                    <mxGeometry x="2" y="40" width="80" height="30" as="geometry"/>
                </mxCell>
                <mxCell id="81" value="startTime: Date" style="text;html=1;align=center;verticalAlign=middle;resizable=0;points=[];autosize=1;strokeColor=none;fillColor=none;" vertex="1" parent="78">
                    <mxGeometry y="56" width="110" height="30" as="geometry"/>
                </mxCell>
                <mxCell id="82" value="endTime: Date" style="text;html=1;align=center;verticalAlign=middle;resizable=0;points=[];autosize=1;strokeColor=none;fillColor=none;" vertex="1" parent="78">
                    <mxGeometry x="2.5" y="72" width="100" height="30" as="geometry"/>
                </mxCell>
                <mxCell id="83" value="isAvailable: boolean" style="text;html=1;align=center;verticalAlign=middle;resizable=0;points=[];autosize=1;strokeColor=none;fillColor=none;" vertex="1" parent="78">
                    <mxGeometry x="2" y="87" width="130" height="30" as="geometry"/>
                </mxCell>
                <mxCell id="105" style="edgeStyle=none;html=1;entryX=0;entryY=0.5;entryDx=0;entryDy=0;" edge="1" parent="1" source="89" target="68">
                    <mxGeometry relative="1" as="geometry">
                        <mxPoint x="-683" y="140" as="targetPoint"/>
                        <Array as="points">
                            <mxPoint x="-683" y="150"/>
                        </Array>
                    </mxGeometry>
                </mxCell>
                <mxCell id="107" style="edgeStyle=none;html=1;entryX=0.006;entryY=0.167;entryDx=0;entryDy=0;entryPerimeter=0;" edge="1" parent="1" source="89" target="63">
                    <mxGeometry relative="1" as="geometry"/>
                </mxCell>
                <mxCell id="108" style="edgeStyle=none;html=1;entryX=-0.003;entryY=0.322;entryDx=0;entryDy=0;entryPerimeter=0;" edge="1" parent="1" source="89" target="83">
                    <mxGeometry relative="1" as="geometry">
                        <Array as="points">
                            <mxPoint x="-680" y="589"/>
                        </Array>
                    </mxGeometry>
                </mxCell>
                <mxCell id="89" value="Appointment" style="swimlane;fillColor=none;strokeColor=#000000;" vertex="1" parent="1">
                    <mxGeometry x="-798" y="280" width="230" height="150" as="geometry">
                        <mxRectangle x="-770" y="50" width="70" height="30" as="alternateBounds"/>
                    </mxGeometry>
                </mxCell>
                <mxCell id="90" value="availabilityId: Availability._id" style="text;html=1;align=center;verticalAlign=middle;resizable=0;points=[];autosize=1;strokeColor=none;fillColor=none;" vertex="1" parent="89">
                    <mxGeometry x="1" y="25" width="170" height="30" as="geometry"/>
                </mxCell>
                <mxCell id="91" value="serviceId: Service._id" style="text;html=1;align=center;verticalAlign=middle;resizable=0;points=[];autosize=1;strokeColor=none;fillColor=none;" vertex="1" parent="89">
                    <mxGeometry x="-1" y="40" width="140" height="30" as="geometry"/>
                </mxCell>
                <mxCell id="95" value="userId: User._id" style="text;html=1;align=center;verticalAlign=middle;resizable=0;points=[];autosize=1;strokeColor=none;fillColor=none;" vertex="1" parent="89">
                    <mxGeometry x="-1" y="57" width="110" height="30" as="geometry"/>
                </mxCell>
                <mxCell id="96" value="status: Booked,Cancelled,Rescheduled" style="text;html=1;align=center;verticalAlign=middle;resizable=0;points=[];autosize=1;strokeColor=none;fillColor=none;" vertex="1" parent="89">
                    <mxGeometry x="1" y="73" width="230" height="30" as="geometry"/>
                </mxCell>
                <mxCell id="97" value="date: Date" style="text;html=1;align=center;verticalAlign=middle;resizable=0;points=[];autosize=1;strokeColor=none;fillColor=none;" vertex="1" parent="89">
                    <mxGeometry y="90" width="80" height="30" as="geometry"/>
                </mxCell>
                <mxCell id="99" value="startTime: Date" style="text;html=1;align=center;verticalAlign=middle;resizable=0;points=[];autosize=1;strokeColor=none;fillColor=none;" vertex="1" parent="89">
                    <mxGeometry x="-2" y="105" width="110" height="30" as="geometry"/>
                </mxCell>
            </root>
        </mxGraphModel>
    </diagram>
</mxfile>